<svg width="1386" height="1368" viewBox="0 0 1386 1368" fill="none" xmlns="http://www.w3.org/2000/svg">
<path opacity="0.35" d="M500.31 204.01C568.26 206.39 631.89 233.42 680.9 280.81H681.58C732.07 231.99 796.85 206.44 862.3 204.14C814.83 159.82 751.15 132.67 681.24 132.67C611.33 132.67 547.77 159.78 500.31 204.02V204.01Z" fill="white"/>
<path opacity="0.35" d="M860.91 1133.11C796.11 1130.51 732.05 1105.1 681.97 1056.88C631.79 1105.56 567.46 1131.21 502.34 1133.84C549.57 1176.97 612.38 1203.3 681.23 1203.3C750.08 1203.3 813.59 1176.66 860.91 1133.11Z" fill="white"/>
<path opacity="0.35" d="M1216.55 667.98C1216.55 598.49 1189.72 535.15 1145.87 487.77C1143.47 555.86 1116.33 619.61 1068.74 668.64C1116.03 717.37 1143.13 780.63 1145.82 848.23C1189.7 800.85 1216.55 737.49 1216.55 667.97V667.98Z" fill="white"/>
<path opacity="0.35" d="M294.06 669C245.06 618.67 219.3 554.03 216.75 488.63C172.8 536.03 145.91 599.44 145.91 669.02C145.91 738.6 173.1 802.68 217.46 850.16C219.82 784.83 245.36 720.2 294.07 669.78C294.07 669.53 294.07 669.25 294.07 669H294.06Z" fill="white"/>
<path opacity="0.35" d="M406.4 395.02C406.68 394.74 406.94 394.48 407.22 394.2C408.23 324.29 435.54 260.62 479.7 212.69C415.34 215.28 351.74 241.09 302.71 290.12C253.42 339.41 227.6 403.42 225.24 468.13C273.01 423.82 336.56 396.29 406.4 395.02Z" fill="white"/>
<path opacity="0.35" d="M668.66 281.01C618.54 235.59 555.13 212.75 491.63 212.47C447.41 257.61 419.13 318.41 415.99 385.68C487.08 318.82 577.43 283.94 668.66 281.01Z" fill="white"/>
<path opacity="0.35" d="M668.66 281.01C618.54 235.59 555.13 212.75 491.63 212.47C447.41 257.61 419.13 318.41 415.99 385.68C487.08 318.82 577.43 283.94 668.66 281.01Z" fill="white"/>
<path opacity="0.35" d="M673.06 289.4C581.01 291.37 489.57 326.58 418.48 395.06C487.83 396.82 550.85 424.46 598.23 468.67C600.39 403.88 625.32 339.74 673.05 289.4H673.06Z" fill="white"/>
<path opacity="0.35" d="M673.06 289.4C581.01 291.37 489.57 326.58 418.48 395.06C487.83 396.82 550.85 424.46 598.23 468.67C600.39 403.88 625.32 339.74 673.05 289.4H673.06Z" fill="white"/>
<path opacity="0.35" d="M673.06 289.4C581.01 291.37 489.57 326.58 418.48 395.06C487.83 396.82 550.85 424.46 598.23 468.67C600.39 403.88 625.32 339.74 673.05 289.4H673.06Z" fill="white"/>
<path opacity="0.35" d="M397.92 403.82C330.72 407.2 270.04 435.68 225.06 480.06C225.57 543.52 248.62 606.8 294.22 656.76C296.84 565.55 331.41 475.09 397.92 403.82Z" fill="white"/>
<path opacity="0.35" d="M397.92 403.82C330.72 407.2 270.04 435.68 225.06 480.06C225.57 543.52 248.62 606.8 294.22 656.76C296.84 565.55 331.41 475.09 397.92 403.82Z" fill="white"/>
<path opacity="0.35" d="M302.63 661.29C353.03 613.46 417.31 588.49 482.2 586.38C437.46 539.08 409.34 475.9 407.31 406.28C339.14 477.6 304.24 569.2 302.63 661.29Z" fill="white"/>
<path opacity="0.35" d="M302.63 661.29C353.03 613.46 417.31 588.49 482.2 586.38C437.46 539.08 409.34 475.9 407.31 406.28C339.14 477.6 304.24 569.2 302.63 661.29Z" fill="white"/>
<path opacity="0.35" d="M302.63 661.29C353.03 613.46 417.31 588.49 482.2 586.38C437.46 539.08 409.34 475.9 407.31 406.28C339.14 477.6 304.24 569.2 302.63 661.29Z" fill="white"/>
<path opacity="0.35" d="M415.76 403.52C417.1 471.48 444.11 533.26 487.46 579.56C497.89 556.74 512.43 535.73 530.71 517.45C549.03 499.13 569.88 484.85 592.15 474.62C545.7 431.41 483.8 404.61 415.76 403.52Z" fill="white"/>
<path opacity="0.35" d="M415.76 403.52C417.1 471.48 444.11 533.26 487.46 579.56C497.89 556.74 512.43 535.73 530.71 517.45C549.03 499.13 569.88 484.85 592.15 474.62C545.7 431.41 483.8 404.61 415.76 403.52Z" fill="white"/>
<path opacity="0.35" d="M415.76 403.52C417.1 471.48 444.11 533.26 487.46 579.56C497.89 556.74 512.43 535.73 530.71 517.45C549.03 499.13 569.88 484.85 592.15 474.62C545.7 431.41 483.8 404.61 415.76 403.52Z" fill="white"/>
<path opacity="0.35" d="M415.76 403.52C417.1 471.48 444.11 533.26 487.46 579.56C497.89 556.74 512.43 535.73 530.71 517.45C549.03 499.13 569.88 484.85 592.15 474.62C545.7 431.41 483.8 404.61 415.76 403.52Z" fill="white"/>
<path opacity="0.35" d="M955.24 941.99C954.17 1012.49 926.34 1076.62 881.49 1124.65C946.29 1122.35 1010.4 1096.53 1059.76 1047.17C1107.71 999.22 1135.07 936.16 1137.37 868.73C1089.4 913.3 1025.48 940.92 955.24 941.99Z" fill="white"/>
<path opacity="0.35" d="M692.39 1054.99C742.39 1100.95 805.87 1124.22 869.53 1124.81C914.5 1079.54 943.31 1018.21 946.48 950.28C875.03 1017.46 784.09 1052.38 692.4 1054.99H692.39Z" fill="white"/>
<path opacity="0.35" d="M692.39 1054.99C742.39 1100.95 805.87 1124.22 869.53 1124.81C914.5 1079.54 943.31 1018.21 946.48 950.28C875.03 1017.46 784.09 1052.38 692.4 1054.99H692.39Z" fill="white"/>
<path opacity="0.35" d="M692.14 1046.49C782.8 1043.9 872.72 1009.03 942.94 941.91C874.36 939.92 812.03 912.61 764.97 869.02C762.92 933 738.64 996.4 692.14 1046.49Z" fill="white"/>
<path opacity="0.35" d="M692.14 1046.49C782.8 1043.9 872.72 1009.03 942.94 941.91C874.36 939.92 812.03 912.61 764.97 869.02C762.92 933 738.64 996.4 692.14 1046.49Z" fill="white"/>
<path opacity="0.35" d="M692.14 1046.49C782.8 1043.9 872.72 1009.03 942.94 941.91C874.36 939.92 812.03 912.61 764.97 869.02C762.92 933 738.64 996.4 692.14 1046.49Z" fill="white"/>
<path opacity="0.35" d="M963.53 933.22C1031.19 930.07 1092.3 901.48 1137.52 856.81C1136.89 790.93 1112.42 728.87 1068.2 680.49C1065.28 771.73 1030.38 862.12 963.53 933.22Z" fill="white"/>
<path opacity="0.35" d="M963.53 933.22C1031.19 930.07 1092.3 901.48 1137.52 856.81C1136.89 790.93 1112.42 728.87 1068.2 680.49C1065.28 771.73 1030.38 862.12 963.53 933.22Z" fill="white"/>
<path opacity="0.35" d="M1059.79 677.48C1011.26 723.21 948.86 749.3 882.29 751.74C925.87 798.8 953.17 861.12 955.17 929.69C1022.65 859.1 1057.53 768.63 1059.79 677.48Z" fill="white"/>
<path opacity="0.35" d="M1059.79 677.48C1011.26 723.21 948.86 749.3 882.29 751.74C925.87 798.8 953.17 861.12 955.17 929.69C1022.65 859.1 1057.53 768.63 1059.79 677.48Z" fill="white"/>
<path opacity="0.35" d="M1059.79 677.48C1011.26 723.21 948.86 749.3 882.29 751.74C925.87 798.8 953.17 861.12 955.17 929.69C1022.65 859.1 1057.53 768.63 1059.79 677.48Z" fill="white"/>
<path opacity="0.35" d="M831.77 818.52C813.25 837.04 792.13 851.43 769.58 861.69C816.12 905.31 878.32 932.4 946.73 933.48C945.64 865.07 918.56 802.87 874.94 756.33C864.68 778.88 850.29 800 831.77 818.52Z" fill="white"/>
<path opacity="0.35" d="M831.77 818.52C813.25 837.04 792.13 851.43 769.58 861.69C816.12 905.31 878.32 932.4 946.73 933.48C945.64 865.07 918.56 802.87 874.94 756.33C864.68 778.88 850.29 800 831.77 818.52Z" fill="white"/>
<path opacity="0.35" d="M831.77 818.52C813.25 837.04 792.13 851.43 769.58 861.69C816.12 905.31 878.32 932.4 946.73 933.48C945.64 865.07 918.56 802.87 874.94 756.33C864.68 778.88 850.29 800 831.77 818.52Z" fill="white"/>
<path opacity="0.35" d="M831.77 818.52C813.25 837.04 792.13 851.43 769.58 861.69C816.12 905.31 878.32 932.4 946.73 933.48C945.64 865.07 918.56 802.87 874.94 756.33C864.68 778.88 850.29 800 831.77 818.52Z" fill="white"/>
<path opacity="0.35" d="M882.78 212.69C926.89 260.57 954.19 324.14 955.25 393.97C1025.47 395.04 1089.36 422.64 1137.33 467.18C1134.7 400.27 1107.39 337.74 1059.77 290.12C1010.74 241.09 947.14 215.28 882.78 212.69Z" fill="white"/>
<path opacity="0.35" d="M693.81 281.01C785.02 283.94 875.39 318.84 946.48 385.68C943.35 318.41 915.07 257.61 870.84 212.47C807.35 212.75 743.93 235.6 693.81 281.01Z" fill="white"/>
<path opacity="0.35" d="M693.81 281.01C785.02 283.94 875.39 318.84 946.48 385.68C943.35 318.41 915.07 257.61 870.84 212.47C807.35 212.75 743.93 235.6 693.81 281.01Z" fill="white"/>
<path opacity="0.35" d="M942.94 394.06C872.01 326.26 781 291.36 689.41 289.41C735.53 338.03 761.86 400.69 764.32 467.56C811.45 423.63 874.05 396.07 942.94 394.07V394.06Z" fill="white"/>
<path opacity="0.35" d="M942.94 394.06C872.01 326.26 781 291.36 689.41 289.41C735.53 338.03 761.86 400.69 764.32 467.56C811.45 423.63 874.05 396.07 942.94 394.07V394.06Z" fill="white"/>
<path opacity="0.35" d="M942.94 394.06C872.01 326.26 781 291.36 689.41 289.41C735.53 338.03 761.86 400.69 764.32 467.56C811.45 423.63 874.05 396.07 942.94 394.07V394.06Z" fill="white"/>
<path opacity="0.35" d="M1137.53 479.16C1092.31 434.5 1031.19 405.9 963.53 402.74C1030.7 474.17 1065.61 565.09 1068.25 656.76C1112.74 608.06 1137.22 545.5 1137.53 479.15V479.16Z" fill="white"/>
<path opacity="0.35" d="M1137.53 479.16C1092.31 434.5 1031.19 405.9 963.53 402.74C1030.7 474.17 1065.61 565.09 1068.25 656.76C1112.74 608.06 1137.22 545.5 1137.53 479.15V479.16Z" fill="white"/>
<path opacity="0.35" d="M880.96 585.65C945.54 587.75 1009.52 612.47 1059.81 659.85C1057.86 568.25 1022.97 477.22 955.16 406.28C953.14 475.54 925.3 538.43 880.96 585.65Z" fill="white"/>
<path opacity="0.35" d="M880.96 585.65C945.54 587.75 1009.52 612.47 1059.81 659.85C1057.86 568.25 1022.97 477.22 955.16 406.28C953.14 475.54 925.3 538.43 880.96 585.65Z" fill="white"/>
<path opacity="0.35" d="M880.96 585.65C945.54 587.75 1009.52 612.47 1059.81 659.85C1057.86 568.25 1022.97 477.22 955.16 406.28C953.14 475.54 925.3 538.43 880.96 585.65Z" fill="white"/>
<path opacity="0.35" d="M874.94 579.63C918.56 533.09 945.64 470.89 946.73 402.48C878.32 403.57 816.12 430.65 769.58 474.27C792.13 484.53 813.25 498.92 831.77 517.44C850.29 535.96 864.68 557.08 874.94 579.63Z" fill="white"/>
<path opacity="0.35" d="M874.94 579.63C918.56 533.09 945.64 470.89 946.73 402.48C878.32 403.57 816.12 430.65 769.58 474.27C792.13 484.53 813.25 498.92 831.77 517.44C850.29 535.96 864.68 557.08 874.94 579.63Z" fill="white"/>
<path opacity="0.35" d="M874.94 579.63C918.56 533.09 945.64 470.89 946.73 402.48C878.32 403.57 816.12 430.65 769.58 474.27C792.13 484.53 813.25 498.92 831.77 517.44C850.29 535.96 864.68 557.08 874.94 579.63Z" fill="white"/>
<path opacity="0.35" d="M874.94 579.63C918.56 533.09 945.64 470.89 946.73 402.48C878.32 403.57 816.12 430.65 769.58 474.27C792.13 484.53 813.25 498.92 831.77 517.44C850.29 535.96 864.68 557.08 874.94 579.63Z" fill="white"/>
<path opacity="0.35" d="M606.76 468.55C630.72 459.64 655.98 455.19 681.24 455.19C706.5 455.19 731.84 459.66 755.84 468.6C753.59 402.58 727.32 340.74 681.23 293.18C633.79 342.15 608.97 405.03 606.75 468.56L606.76 468.55Z" fill="white"/>
<path opacity="0.35" d="M606.76 468.55C630.72 459.64 655.98 455.19 681.24 455.19C706.5 455.19 731.84 459.66 755.84 468.6C753.59 402.58 727.32 340.74 681.23 293.18C633.79 342.15 608.97 405.03 606.75 468.56L606.76 468.55Z" fill="white"/>
<path opacity="0.35" d="M606.76 468.55C630.72 459.64 655.98 455.19 681.24 455.19C706.5 455.19 731.84 459.66 755.84 468.6C753.59 402.58 727.32 340.74 681.23 293.18C633.79 342.15 608.97 405.03 606.75 468.56L606.76 468.55Z" fill="white"/>
<path opacity="0.35" d="M606.76 468.55C630.72 459.64 655.98 455.19 681.24 455.19C706.5 455.19 731.84 459.66 755.84 468.6C753.59 402.58 727.32 340.74 681.23 293.18C633.79 342.15 608.97 405.03 606.75 468.56L606.76 468.55Z" fill="white"/>
<path opacity="0.35" d="M880.36 743.28C946.73 741.24 1008.92 714.95 1056.71 668.64C1007.63 621.1 944.58 596.27 880.91 594.15C898.59 642.18 898.4 695.35 880.36 743.28Z" fill="white"/>
<path opacity="0.35" d="M880.36 743.28C946.73 741.24 1008.92 714.95 1056.71 668.64C1007.63 621.1 944.58 596.27 880.91 594.15C898.59 642.18 898.4 695.35 880.36 743.28Z" fill="white"/>
<path opacity="0.35" d="M880.36 743.28C946.73 741.24 1008.92 714.95 1056.71 668.64C1007.63 621.1 944.58 596.27 880.91 594.15C898.59 642.18 898.4 695.35 880.36 743.28Z" fill="white"/>
<path opacity="0.35" d="M880.36 743.28C946.73 741.24 1008.92 714.95 1056.71 668.64C1007.63 621.1 944.58 596.27 880.91 594.15C898.59 642.18 898.4 695.35 880.36 743.28Z" fill="white"/>
<path opacity="0.35" d="M481.66 1125.38C436.62 1077.5 408.57 1013.48 407.24 943.02C337.43 941.97 273.87 914.68 225.99 870.59C228.51 935.06 254.32 998.78 303.43 1047.9C352.78 1097.24 416.87 1123.07 481.65 1125.38H481.66Z" fill="white"/>
<path opacity="0.35" d="M671.55 1055.03C579.36 1052.74 487.83 1017.83 415.99 950.28C419.17 1018.58 448.27 1080.2 493.66 1125.54C557.64 1124.95 621.44 1101.45 671.55 1055.03Z" fill="white"/>
<path opacity="0.35" d="M671.55 1055.03C579.36 1052.74 487.83 1017.83 415.99 950.28C419.17 1018.58 448.27 1080.2 493.66 1125.54C557.64 1124.95 621.44 1101.45 671.55 1055.03Z" fill="white"/>
<path opacity="0.35" d="M598.27 869.34C551.36 913.11 489.12 940.66 420.59 942.91C491.04 1009.74 581.08 1044.29 671.78 1046.53C625.06 996.59 600.56 933.29 598.27 869.34Z" fill="white"/>
<path opacity="0.35" d="M598.27 869.34C551.36 913.11 489.12 940.66 420.59 942.91C491.04 1009.74 581.08 1044.29 671.78 1046.53C625.06 996.59 600.56 933.29 598.27 869.34Z" fill="white"/>
<path opacity="0.35" d="M598.27 869.34C551.36 913.11 489.12 940.66 420.59 942.91C491.04 1009.74 581.08 1044.29 671.78 1046.53C625.06 996.59 600.56 933.29 598.27 869.34Z" fill="white"/>
<path opacity="0.35" d="M294.31 681.97C248.97 732.01 226.14 795.29 225.79 858.68C271.14 903.09 332.31 931.41 399.95 934.3C332.78 863.42 297.57 773.17 294.31 681.97Z" fill="white"/>
<path opacity="0.35" d="M294.31 681.97C248.97 732.01 226.14 795.29 225.79 858.68C271.14 903.09 332.31 931.41 399.95 934.3C332.78 863.42 297.57 773.17 294.31 681.97Z" fill="white"/>
<path opacity="0.35" d="M302.69 677.48C304.95 768.62 339.83 859.09 407.31 929.68C409.31 861.11 436.61 798.79 480.19 751.73C413.62 749.29 351.22 723.2 302.7 677.48H302.69Z" fill="white"/>
<path opacity="0.35" d="M302.69 677.48C304.95 768.62 339.83 859.09 407.31 929.68C409.31 861.11 436.61 798.79 480.19 751.73C413.62 749.29 351.22 723.2 302.7 677.48H302.69Z" fill="white"/>
<path opacity="0.35" d="M302.69 677.48C304.95 768.62 339.83 859.09 407.31 929.68C409.31 861.11 436.61 798.79 480.19 751.73C413.62 749.29 351.22 723.2 302.7 677.48H302.69Z" fill="white"/>
<path opacity="0.35" d="M530.7 818.52C512.43 800.25 497.88 779.24 487.45 756.41C443.66 803.17 416.55 865.74 415.72 934.51C484.49 933.42 547.01 906.04 593.63 862.02C570.8 851.74 549.42 837.24 530.7 818.52Z" fill="white"/>
<path opacity="0.35" d="M530.7 818.52C512.43 800.25 497.88 779.24 487.45 756.41C443.66 803.17 416.55 865.74 415.72 934.51C484.49 933.42 547.01 906.04 593.63 862.02C570.8 851.74 549.42 837.24 530.7 818.52Z" fill="white"/>
<path opacity="0.35" d="M530.7 818.52C512.43 800.25 497.88 779.24 487.45 756.41C443.66 803.17 416.55 865.74 415.72 934.51C484.49 933.42 547.01 906.04 593.63 862.02C570.8 851.74 549.42 837.24 530.7 818.52Z" fill="white"/>
<path opacity="0.35" d="M530.7 818.52C512.43 800.25 497.88 779.24 487.45 756.41C443.66 803.17 416.55 865.74 415.72 934.51C484.49 933.42 547.01 906.04 593.63 862.02C570.8 851.74 549.42 837.24 530.7 818.52Z" fill="white"/>
<path opacity="0.35" d="M481.15 594.93C417.87 597.3 355.3 622.11 306.51 669.37C354.17 715.2 416 741.23 481.99 743.28C473.03 719.54 468.35 694.12 468.35 667.98C468.35 641.84 472.74 618.02 481.16 594.93H481.15Z" fill="white"/>
<path opacity="0.35" d="M481.15 594.93C417.87 597.3 355.3 622.11 306.51 669.37C354.17 715.2 416 741.23 481.99 743.28C473.03 719.54 468.35 694.12 468.35 667.98C468.35 641.84 472.74 618.02 481.16 594.93H481.15Z" fill="white"/>
<path opacity="0.35" d="M481.15 594.93C417.87 597.3 355.3 622.11 306.51 669.37C354.17 715.2 416 741.23 481.99 743.28C473.03 719.54 468.35 694.12 468.35 667.98C468.35 641.84 472.74 618.02 481.16 594.93H481.15Z" fill="white"/>
<path opacity="0.35" d="M481.15 594.93C417.87 597.3 355.3 622.11 306.51 669.37C354.17 715.2 416 741.23 481.99 743.28C473.03 719.54 468.35 694.12 468.35 667.98C468.35 641.84 472.74 618.02 481.16 594.93H481.15Z" fill="white"/>
<path opacity="0.35" d="M681.96 1044.86C729.99 995.28 754.84 931.44 756.52 867.11C708.36 885.24 654.92 885.33 606.72 867.39C608.63 931.7 633.72 995.43 681.96 1044.86Z" fill="white"/>
<path opacity="0.35" d="M681.96 1044.86C729.99 995.28 754.84 931.44 756.52 867.11C708.36 885.24 654.92 885.33 606.72 867.39C608.63 931.7 633.72 995.43 681.96 1044.86Z" fill="white"/>
<path opacity="0.35" d="M681.96 1044.86C729.99 995.28 754.84 931.44 756.52 867.11C708.36 885.24 654.92 885.33 606.72 867.39C608.63 931.7 633.72 995.43 681.96 1044.86Z" fill="white"/>
<path opacity="0.35" d="M681.96 1044.86C729.99 995.28 754.84 931.44 756.52 867.11C708.36 885.24 654.92 885.33 606.72 867.39C608.63 931.7 633.72 995.43 681.96 1044.86Z" fill="white"/>
<path opacity="0.35" d="M536.72 523.46C518.11 542.07 503.84 563.42 493.92 586.22C493.93 586.23 493.94 586.24 493.95 586.25C547.74 586.78 601.42 603.02 647.41 634.95C615.18 588.91 598.75 535.12 598.11 481.15C575.52 491.21 554.73 505.45 536.72 523.46Z" fill="white"/>
<path opacity="0.35" d="M536.72 523.46C518.11 542.07 503.84 563.42 493.92 586.22C493.93 586.23 493.94 586.24 493.95 586.25C547.74 586.78 601.42 603.02 647.41 634.95C615.18 588.91 598.75 535.12 598.11 481.15C575.52 491.21 554.73 505.45 536.72 523.46Z" fill="white"/>
<path opacity="0.35" d="M536.72 523.46C518.11 542.07 503.84 563.42 493.92 586.22C493.93 586.23 493.94 586.24 493.95 586.25C547.74 586.78 601.42 603.02 647.41 634.95C615.18 588.91 598.75 535.12 598.11 481.15C575.52 491.21 554.73 505.45 536.72 523.46Z" fill="white"/>
<path opacity="0.35" d="M536.72 523.46C518.11 542.07 503.84 563.42 493.92 586.22C493.93 586.23 493.94 586.24 493.95 586.25C547.74 586.78 601.42 603.02 647.41 634.95C615.18 588.91 598.75 535.12 598.11 481.15C575.52 491.21 554.73 505.45 536.72 523.46Z" fill="white"/>
<path opacity="0.35" d="M536.72 523.46C518.11 542.07 503.84 563.42 493.92 586.22C493.93 586.23 493.94 586.24 493.95 586.25C547.74 586.78 601.42 603.02 647.41 634.95C615.18 588.91 598.75 535.12 598.11 481.15C575.52 491.21 554.73 505.45 536.72 523.46Z" fill="white"/>
<path opacity="0.35" d="M825.76 812.5C843.56 794.69 857.68 774.18 867.72 751.89C812.66 751.05 760.23 734.07 715.87 703.18C747.58 748.52 763.97 801.38 765.05 854.5C787.38 844.46 807.92 830.33 825.75 812.5H825.76Z" fill="white"/>
<path opacity="0.35" d="M825.76 812.5C843.56 794.69 857.68 774.18 867.72 751.89C812.66 751.05 760.23 734.07 715.87 703.18C747.58 748.52 763.97 801.38 765.05 854.5C787.38 844.46 807.92 830.33 825.75 812.5H825.76Z" fill="white"/>
<path opacity="0.35" d="M825.76 812.5C843.56 794.69 857.68 774.18 867.72 751.89C812.66 751.05 760.23 734.07 715.87 703.18C747.58 748.52 763.97 801.38 765.05 854.5C787.38 844.46 807.92 830.33 825.75 812.5H825.76Z" fill="white"/>
<path opacity="0.35" d="M825.76 812.5C843.56 794.69 857.68 774.18 867.72 751.89C812.66 751.05 760.23 734.07 715.87 703.18C747.58 748.52 763.97 801.38 765.05 854.5C787.38 844.46 807.92 830.33 825.75 812.5H825.76Z" fill="white"/>
<path opacity="0.35" d="M825.76 812.5C843.56 794.69 857.68 774.18 867.72 751.89C812.66 751.05 760.23 734.07 715.87 703.18C747.58 748.52 763.97 801.38 765.05 854.5C787.38 844.46 807.92 830.33 825.75 812.5H825.76Z" fill="white"/>
<path opacity="0.35" d="M868.37 585.53C858.29 562.68 843.95 541.66 825.76 523.47C807.78 505.49 787.04 491.27 764.5 481.21C763.84 536.8 746.73 589.74 715.48 634.45C761.29 602.55 814.75 586.24 868.38 585.53H868.37Z" fill="white"/>
<path opacity="0.35" d="M868.37 585.53C858.29 562.68 843.95 541.66 825.76 523.47C807.78 505.49 787.04 491.27 764.5 481.21C763.84 536.8 746.73 589.74 715.48 634.45C761.29 602.55 814.75 586.24 868.38 585.53H868.37Z" fill="white"/>
<path opacity="0.35" d="M868.37 585.53C858.29 562.68 843.95 541.66 825.76 523.47C807.78 505.49 787.04 491.27 764.5 481.21C763.84 536.8 746.73 589.74 715.48 634.45C761.29 602.55 814.75 586.24 868.38 585.53H868.37Z" fill="white"/>
<path opacity="0.35" d="M868.37 585.53C858.29 562.68 843.95 541.66 825.76 523.47C807.78 505.49 787.04 491.27 764.5 481.21C763.84 536.8 746.73 589.74 715.48 634.45C761.29 602.55 814.75 586.24 868.38 585.53H868.37Z" fill="white"/>
<path opacity="0.35" d="M868.37 585.53C858.29 562.68 843.95 541.66 825.76 523.47C807.78 505.49 787.04 491.27 764.5 481.21C763.84 536.8 746.73 589.74 715.48 634.45C761.29 602.55 814.75 586.24 868.38 585.53H868.37Z" fill="white"/>
<path opacity="0.35" d="M754.58 477.1C731.49 468.24 706.72 463.61 681.24 463.61C655.76 463.61 630.47 468.34 607.17 477.39C644.78 515.79 671.21 565.19 681.15 620.25C690.87 565.13 717.12 515.65 754.58 477.11V477.1Z" fill="white"/>
<path opacity="0.35" d="M754.58 477.1C731.49 468.24 706.72 463.61 681.24 463.61C655.76 463.61 630.47 468.34 607.17 477.39C644.78 515.79 671.21 565.19 681.15 620.25C690.87 565.13 717.12 515.65 754.58 477.11V477.1Z" fill="white"/>
<path opacity="0.35" d="M754.58 477.1C731.49 468.24 706.72 463.61 681.24 463.61C655.76 463.61 630.47 468.34 607.17 477.39C644.78 515.79 671.21 565.19 681.15 620.25C690.87 565.13 717.12 515.65 754.58 477.11V477.1Z" fill="white"/>
<path opacity="0.35" d="M754.58 477.1C731.49 468.24 706.72 463.61 681.24 463.61C655.76 463.61 630.47 468.34 607.17 477.39C644.78 515.79 671.21 565.19 681.15 620.25C690.87 565.13 717.12 515.65 754.58 477.11V477.1Z" fill="white"/>
<path opacity="0.35" d="M754.58 477.1C731.49 468.24 706.72 463.61 681.24 463.61C655.76 463.61 630.47 468.34 607.17 477.39C644.78 515.79 671.21 565.19 681.15 620.25C690.87 565.13 717.12 515.65 754.58 477.11V477.1Z" fill="white"/>
<path opacity="0.35" d="M755.81 488.17C714.31 533.19 688.14 592.56 685.68 657.88C728.79 611.22 753.4 551.65 755.81 488.17Z" fill="white"/>
<path opacity="0.35" d="M755.81 488.17C714.31 533.19 688.14 592.56 685.68 657.88C728.79 611.22 753.4 551.65 755.81 488.17Z" fill="white"/>
<path opacity="0.35" d="M755.81 488.17C714.31 533.19 688.14 592.56 685.68 657.88C728.79 611.22 753.4 551.65 755.81 488.17Z" fill="white"/>
<path opacity="0.35" d="M755.81 488.17C714.31 533.19 688.14 592.56 685.68 657.88C728.79 611.22 753.4 551.65 755.81 488.17Z" fill="white"/>
<path opacity="0.35" d="M755.81 488.17C714.31 533.19 688.14 592.56 685.68 657.88C728.79 611.22 753.4 551.65 755.81 488.17Z" fill="white"/>
<path opacity="0.35" d="M755.81 488.17C714.31 533.19 688.14 592.56 685.68 657.88C728.79 611.22 753.4 551.65 755.81 488.17Z" fill="white"/>
<path opacity="0.35" d="M676.75 657.83C674.05 593.02 648.02 534.14 606.85 489.39C609.47 550.13 632.77 610.15 676.75 657.83Z" fill="white"/>
<path opacity="0.35" d="M676.75 657.83C674.05 593.02 648.02 534.14 606.85 489.39C609.47 550.13 632.77 610.15 676.75 657.83Z" fill="white"/>
<path opacity="0.35" d="M676.75 657.83C674.05 593.02 648.02 534.14 606.85 489.39C609.47 550.13 632.77 610.15 676.75 657.83Z" fill="white"/>
<path opacity="0.35" d="M676.75 657.83C674.05 593.02 648.02 534.14 606.85 489.39C609.47 550.13 632.77 610.15 676.75 657.83Z" fill="white"/>
<path opacity="0.35" d="M676.75 657.83C674.05 593.02 648.02 534.14 606.85 489.39C609.47 550.13 632.77 610.15 676.75 657.83Z" fill="white"/>
<path opacity="0.35" d="M676.75 657.83C674.05 593.02 648.02 534.14 606.85 489.39C609.47 550.13 632.77 610.15 676.75 657.83Z" fill="white"/>
<path opacity="0.35" d="M872.12 594.64C833.7 631.98 784.41 658.19 729.5 667.98C784.41 677.78 833.7 703.98 872.12 741.32C880.99 718.22 885.62 693.46 885.62 667.98C885.62 642.5 880.99 617.74 872.12 594.64Z" fill="white"/>
<path opacity="0.35" d="M872.12 594.64C833.7 631.98 784.41 658.19 729.5 667.98C784.41 677.78 833.7 703.98 872.12 741.32C880.99 718.22 885.62 693.46 885.62 667.98C885.62 642.5 880.99 617.74 872.12 594.64Z" fill="white"/>
<path opacity="0.35" d="M872.12 594.64C833.7 631.98 784.41 658.19 729.5 667.98C784.41 677.78 833.7 703.98 872.12 741.32C880.99 718.22 885.62 693.46 885.62 667.98C885.62 642.5 880.99 617.74 872.12 594.64Z" fill="white"/>
<path opacity="0.35" d="M872.12 594.64C833.7 631.98 784.41 658.19 729.5 667.98C784.41 677.78 833.7 703.98 872.12 741.32C880.99 718.22 885.62 693.46 885.62 667.98C885.62 642.5 880.99 617.74 872.12 594.64Z" fill="white"/>
<path opacity="0.35" d="M872.12 594.64C833.7 631.98 784.41 658.19 729.5 667.98C784.41 677.78 833.7 703.98 872.12 741.32C880.99 718.22 885.62 693.46 885.62 667.98C885.62 642.5 880.99 617.74 872.12 594.64Z" fill="white"/>
<path opacity="0.35" d="M860.11 594.27C799.81 596.95 740.26 620.01 692.79 663.47C757.09 660.7 815.53 634.96 860.11 594.27Z" fill="white"/>
<path opacity="0.35" d="M860.11 594.27C799.81 596.95 740.26 620.01 692.79 663.47C757.09 660.7 815.53 634.96 860.11 594.27Z" fill="white"/>
<path opacity="0.35" d="M860.11 594.27C799.81 596.95 740.26 620.01 692.79 663.47C757.09 660.7 815.53 634.96 860.11 594.27Z" fill="white"/>
<path opacity="0.35" d="M860.11 594.27C799.81 596.95 740.26 620.01 692.79 663.47C757.09 660.7 815.53 634.96 860.11 594.27Z" fill="white"/>
<path opacity="0.35" d="M860.11 594.27C799.81 596.95 740.26 620.01 692.79 663.47C757.09 660.7 815.53 634.96 860.11 594.27Z" fill="white"/>
<path opacity="0.35" d="M860.11 594.27C799.81 596.95 740.26 620.01 692.79 663.47C757.09 660.7 815.53 634.96 860.11 594.27Z" fill="white"/>
<path opacity="0.35" d="M861.77 743.22C816.65 701.32 756.98 674.88 691.28 672.43C738.06 715.96 797.93 740.82 861.77 743.22Z" fill="white"/>
<path opacity="0.35" d="M861.77 743.22C816.65 701.32 756.98 674.88 691.28 672.43C738.06 715.96 797.93 740.82 861.77 743.22Z" fill="white"/>
<path opacity="0.35" d="M861.77 743.22C816.65 701.32 756.98 674.88 691.28 672.43C738.06 715.96 797.93 740.82 861.77 743.22Z" fill="white"/>
<path opacity="0.35" d="M861.77 743.22C816.65 701.32 756.98 674.88 691.28 672.43C738.06 715.96 797.93 740.82 861.77 743.22Z" fill="white"/>
<path opacity="0.35" d="M861.77 743.22C816.65 701.32 756.98 674.88 691.28 672.43C738.06 715.96 797.93 740.82 861.77 743.22Z" fill="white"/>
<path opacity="0.35" d="M861.77 743.22C816.65 701.32 756.98 674.88 691.28 672.43C738.06 715.96 797.93 740.82 861.77 743.22Z" fill="white"/>
<path opacity="0.35" d="M494.86 751.89C504.73 773.88 518.68 794.47 536.71 812.5C554.73 830.52 575.52 844.76 598.12 854.82C599.01 801.52 615.31 748.42 647.02 702.88C602.6 733.93 550.05 751.02 494.85 751.88L494.86 751.89Z" fill="white"/>
<path opacity="0.35" d="M494.86 751.89C504.73 773.88 518.68 794.47 536.71 812.5C554.73 830.52 575.52 844.76 598.12 854.82C599.01 801.52 615.31 748.42 647.02 702.88C602.6 733.93 550.05 751.02 494.85 751.88L494.86 751.89Z" fill="white"/>
<path opacity="0.35" d="M494.86 751.89C504.73 773.88 518.68 794.47 536.71 812.5C554.73 830.52 575.52 844.76 598.12 854.82C599.01 801.52 615.31 748.42 647.02 702.88C602.6 733.93 550.05 751.02 494.85 751.88L494.86 751.89Z" fill="white"/>
<path opacity="0.35" d="M494.86 751.89C504.73 773.88 518.68 794.47 536.71 812.5C554.73 830.52 575.52 844.76 598.12 854.82C599.01 801.52 615.31 748.42 647.02 702.88C602.6 733.93 550.05 751.02 494.85 751.88L494.86 751.89Z" fill="white"/>
<path opacity="0.35" d="M494.86 751.89C504.73 773.88 518.68 794.47 536.71 812.5C554.73 830.52 575.52 844.76 598.12 854.82C599.01 801.52 615.31 748.42 647.02 702.88C602.6 733.93 550.05 751.02 494.85 751.88L494.86 751.89Z" fill="white"/>
<path opacity="0.35" d="M490.44 741.23C528.85 703.94 578.1 677.77 632.97 667.98C578.11 658.19 528.85 632.02 490.45 594.74H490.44C472.46 641.79 472.46 694.19 490.44 741.23Z" fill="white"/>
<path opacity="0.35" d="M490.44 741.23C528.85 703.94 578.1 677.77 632.97 667.98C578.11 658.19 528.85 632.02 490.45 594.74H490.44C472.46 641.79 472.46 694.19 490.44 741.23Z" fill="white"/>
<path opacity="0.35" d="M490.44 741.23C528.85 703.94 578.1 677.77 632.97 667.98C578.11 658.19 528.85 632.02 490.45 594.74H490.44C472.46 641.79 472.46 694.19 490.44 741.23Z" fill="white"/>
<path opacity="0.35" d="M490.44 741.23C528.85 703.94 578.1 677.77 632.97 667.98C578.11 658.19 528.85 632.02 490.45 594.74H490.44C472.46 641.79 472.46 694.19 490.44 741.23Z" fill="white"/>
<path opacity="0.35" d="M490.44 741.23C528.85 703.94 578.1 677.77 632.97 667.98C578.11 658.19 528.85 632.02 490.45 594.74H490.44C472.46 641.79 472.46 694.19 490.44 741.23Z" fill="white"/>
<path opacity="0.35" d="M503.17 595.01C547.62 635.26 605.73 660.71 669.61 663.48C622.3 620.51 563.11 597.69 503.17 595.01Z" fill="white"/>
<path opacity="0.35" d="M503.17 595.01C547.62 635.26 605.73 660.71 669.61 663.48C622.3 620.51 563.11 597.69 503.17 595.01Z" fill="white"/>
<path opacity="0.35" d="M503.17 595.01C547.62 635.26 605.73 660.71 669.61 663.48C622.3 620.51 563.11 597.69 503.17 595.01Z" fill="white"/>
<path opacity="0.35" d="M503.17 595.01C547.62 635.26 605.73 660.71 669.61 663.48C622.3 620.51 563.11 597.69 503.17 595.01Z" fill="white"/>
<path opacity="0.35" d="M503.17 595.01C547.62 635.26 605.73 660.71 669.61 663.48C622.3 620.51 563.11 597.69 503.17 595.01Z" fill="white"/>
<path opacity="0.35" d="M503.17 595.01C547.62 635.26 605.73 660.71 669.61 663.48C622.3 620.51 563.11 597.69 503.17 595.01Z" fill="white"/>
<path opacity="0.35" d="M500.7 743.22C564.54 740.82 624.41 715.96 671.19 672.43C605.49 674.88 545.82 701.32 500.7 743.22Z" fill="white"/>
<path opacity="0.35" d="M500.7 743.22C564.54 740.82 624.41 715.96 671.19 672.43C605.49 674.88 545.82 701.32 500.7 743.22Z" fill="white"/>
<path opacity="0.35" d="M500.7 743.22C564.54 740.82 624.41 715.96 671.19 672.43C605.49 674.88 545.82 701.32 500.7 743.22Z" fill="white"/>
<path opacity="0.35" d="M500.7 743.22C564.54 740.82 624.41 715.96 671.19 672.43C605.49 674.88 545.82 701.32 500.7 743.22Z" fill="white"/>
<path opacity="0.35" d="M500.7 743.22C564.54 740.82 624.41 715.96 671.19 672.43C605.49 674.88 545.82 701.32 500.7 743.22Z" fill="white"/>
<path opacity="0.35" d="M500.7 743.22C564.54 740.82 624.41 715.96 671.19 672.43C605.49 674.88 545.82 701.32 500.7 743.22Z" fill="white"/>
<path opacity="0.35" d="M754.58 858.87C717.36 820.57 691.2 771.46 681.33 716.76C671.67 771.52 645.7 820.71 608.63 859.15C631.52 867.83 656.03 872.37 681.24 872.37C706.45 872.37 731.48 867.74 754.58 858.88V858.87Z" fill="white"/>
<path opacity="0.35" d="M754.58 858.87C717.36 820.57 691.2 771.46 681.33 716.76C671.67 771.52 645.7 820.71 608.63 859.15C631.52 867.83 656.03 872.37 681.24 872.37C706.45 872.37 731.48 867.74 754.58 858.88V858.87Z" fill="white"/>
<path opacity="0.35" d="M754.58 858.87C717.36 820.57 691.2 771.46 681.33 716.76C671.67 771.52 645.7 820.71 608.63 859.15C631.52 867.83 656.03 872.37 681.24 872.37C706.45 872.37 731.48 867.74 754.58 858.88V858.87Z" fill="white"/>
<path opacity="0.35" d="M754.58 858.87C717.36 820.57 691.2 771.46 681.33 716.76C671.67 771.52 645.7 820.71 608.63 859.15C631.52 867.83 656.03 872.37 681.24 872.37C706.45 872.37 731.48 867.74 754.58 858.88V858.87Z" fill="white"/>
<path opacity="0.35" d="M754.58 858.87C717.36 820.57 691.2 771.46 681.33 716.76C671.67 771.52 645.7 820.71 608.63 859.15C631.52 867.83 656.03 872.37 681.24 872.37C706.45 872.37 731.48 867.74 754.58 858.88V858.87Z" fill="white"/>
<path opacity="0.35" d="M756.35 848.38C753.67 787.39 730.13 727.15 685.74 679.41C688.51 744.49 714.83 803.59 756.35 848.38Z" fill="white"/>
<path opacity="0.35" d="M756.35 848.38C753.67 787.39 730.13 727.15 685.74 679.41C688.51 744.49 714.83 803.59 756.35 848.38Z" fill="white"/>
<path opacity="0.35" d="M756.35 848.38C753.67 787.39 730.13 727.15 685.74 679.41C688.51 744.49 714.83 803.59 756.35 848.38Z" fill="white"/>
<path opacity="0.35" d="M756.35 848.38C753.67 787.39 730.13 727.15 685.74 679.41C688.51 744.49 714.83 803.59 756.35 848.38Z" fill="white"/>
<path opacity="0.35" d="M756.35 848.38C753.67 787.39 730.13 727.15 685.74 679.41C688.51 744.49 714.83 803.59 756.35 848.38Z" fill="white"/>
<path opacity="0.35" d="M756.35 848.38C753.67 787.39 730.13 727.15 685.74 679.41C688.51 744.49 714.83 803.59 756.35 848.38Z" fill="white"/>
<path opacity="0.35" d="M606.81 848.67C648.16 803.74 674.25 744.56 676.77 679.43C632.58 727.32 609.26 787.65 606.81 848.67Z" fill="white"/>
<path opacity="0.35" d="M606.81 848.67C648.16 803.74 674.25 744.56 676.77 679.43C632.58 727.32 609.26 787.65 606.81 848.67Z" fill="white"/>
<path opacity="0.35" d="M606.81 848.67C648.16 803.74 674.25 744.56 676.77 679.43C632.58 727.32 609.26 787.65 606.81 848.67Z" fill="white"/>
<path opacity="0.35" d="M606.81 848.67C648.16 803.74 674.25 744.56 676.77 679.43C632.58 727.32 609.26 787.65 606.81 848.67Z" fill="white"/>
<path opacity="0.35" d="M606.81 848.67C648.16 803.74 674.25 744.56 676.77 679.43C632.58 727.32 609.26 787.65 606.81 848.67Z" fill="white"/>
<path opacity="0.35" d="M606.81 848.67C648.16 803.74 674.25 744.56 676.77 679.43C632.58 727.32 609.26 787.65 606.81 848.67Z" fill="white"/>
</svg>
