<?xml version="1.0" encoding="UTF-8"?>
<svg xmlns="http://www.w3.org/2000/svg" version="1.1" viewBox="0 0 400 200">
  <defs>
    <style>
      .cls-1 {
        fill: #fff;
      }

      .cls-2 {
        fill: #f6f6f6;
        opacity: .35;
      }
    </style>
  </defs>
  <!-- Generator: Adobe Illustrator 28.7.3, SVG Export Plug-In . SVG Version: 1.2.0 Build 164)  -->
  <g>
    <g id="Warstwa_1">
      <g>
        <path class="cls-1" d="M220.36,170.65v-36.53c-4.27,6.06-11.17,9.24-19.3,9.24-15.44,0-33.09-11.3-33.09-35.02,0-21.92,15.17-36.67,36.81-36.67s36.26,13.65,36.26,36.53v62.45h-20.68ZM220.36,107.51c0-9.79-6.34-16.54-15.72-16.54s-15.72,6.76-15.72,16.54,6.34,16.54,15.72,16.54,15.72-6.76,15.72-16.54Z"/>
        <path class="cls-1" d="M254.82,89.18c0-24.54,13.92-39.57,39.57-39.57s39.84,15.03,39.84,39.57v52.39h-22.33v-25.64h-35.29v25.64h-21.78v-52.39ZM311.9,96.62v-7.44c0-12.41-5.38-18.89-17.65-18.89s-17.65,6.48-17.65,18.89v7.44h35.29Z"/>
        <path class="cls-1" d="M347.47,54.02c0-7.58,5.65-13.23,13.23-13.23s13.24,5.65,13.24,13.23-5.65,13.23-13.24,13.23-13.23-5.65-13.23-13.23ZM350.36,73.46h20.68v68.1h-20.68v-68.1Z"/>
      </g>
      <g>
        <path class="cls-2" d="M63.06,48.69c8.26.29,15.99,3.57,21.94,9.33h.08c6.13-5.93,14-9.04,21.96-9.32-5.77-5.38-13.5-8.68-22-8.68s-16.22,3.29-21.98,8.67Z"/>
        <path class="cls-2" d="M106.87,161.57c-7.87-.32-15.66-3.4-21.74-9.26-6.1,5.91-13.91,9.03-21.82,9.35,5.74,5.24,13.37,8.44,21.73,8.44s16.08-3.24,21.83-8.53Z"/>
        <path class="cls-2" d="M150.07,105.06c0-8.44-3.26-16.14-8.59-21.89-.29,8.27-3.59,16.02-9.37,21.97,5.74,5.92,9.04,13.61,9.36,21.82,5.33-5.76,8.59-13.45,8.59-21.9Z"/>
        <path class="cls-2" d="M38,105.19c-5.95-6.11-9.08-13.97-9.39-21.91-5.34,5.76-8.61,13.46-8.61,21.92s3.3,16.24,8.69,22.01c.29-7.94,3.39-15.79,9.31-21.91,0-.03,0-.06,0-.09Z"/>
        <path class="cls-2" d="M51.65,71.9s.07-.07.1-.1c.12-8.49,3.44-16.23,8.81-22.05-7.82.31-15.55,3.45-21.5,9.41-5.99,5.99-9.13,13.76-9.41,21.63,5.8-5.38,13.52-8.73,22.01-8.88Z"/>
        <path class="cls-2" d="M83.51,58.05c-6.09-5.52-13.79-8.29-21.51-8.33-5.37,5.48-8.81,12.87-9.19,21.04,8.64-8.12,19.61-12.36,30.7-12.72Z"/>
        <path class="cls-2" d="M83.51,58.05c-6.09-5.52-13.79-8.29-21.51-8.33-5.37,5.48-8.81,12.87-9.19,21.04,8.64-8.12,19.61-12.36,30.7-12.72Z"/>
        <path class="cls-2" d="M84.04,59.07c-11.18.24-22.29,4.52-30.93,12.84,8.43.21,16.08,3.57,21.84,8.94.26-7.87,3.29-15.66,9.09-21.78Z"/>
        <path class="cls-2" d="M84.04,59.07c-11.18.24-22.29,4.52-30.93,12.84,8.43.21,16.08,3.57,21.84,8.94.26-7.87,3.29-15.66,9.09-21.78Z"/>
        <path class="cls-2" d="M84.04,59.07c-11.18.24-22.29,4.52-30.93,12.84,8.43.21,16.08,3.57,21.84,8.94.26-7.87,3.29-15.66,9.09-21.78Z"/>
        <path class="cls-2" d="M50.62,72.97c-8.16.41-15.54,3.87-21,9.26.06,7.71,2.86,15.4,8.4,21.47.32-11.08,4.52-22.07,12.6-30.73Z"/>
        <path class="cls-2" d="M50.62,72.97c-8.16.41-15.54,3.87-21,9.26.06,7.71,2.86,15.4,8.4,21.47.32-11.08,4.52-22.07,12.6-30.73Z"/>
        <path class="cls-2" d="M39.04,104.25c6.12-5.81,13.93-8.84,21.82-9.1-5.44-5.75-8.85-13.42-9.1-21.88-8.28,8.66-12.52,19.79-12.72,30.98Z"/>
        <path class="cls-2" d="M39.04,104.25c6.12-5.81,13.93-8.84,21.82-9.1-5.44-5.75-8.85-13.42-9.1-21.88-8.28,8.66-12.52,19.79-12.72,30.98Z"/>
        <path class="cls-2" d="M39.04,104.25c6.12-5.81,13.93-8.84,21.82-9.1-5.44-5.75-8.85-13.42-9.1-21.88-8.28,8.66-12.52,19.79-12.72,30.98Z"/>
        <path class="cls-2" d="M52.78,72.93c.16,8.26,3.44,15.76,8.71,21.39,1.27-2.77,3.03-5.33,5.25-7.55,2.23-2.23,4.76-3.96,7.46-5.2-5.64-5.25-13.16-8.51-21.43-8.64Z"/>
        <path class="cls-2" d="M52.78,72.93c.16,8.26,3.44,15.76,8.71,21.39,1.27-2.77,3.03-5.33,5.25-7.55,2.23-2.23,4.76-3.96,7.46-5.2-5.64-5.25-13.16-8.51-21.43-8.64Z"/>
        <path class="cls-2" d="M52.78,72.93c.16,8.26,3.44,15.76,8.71,21.39,1.27-2.77,3.03-5.33,5.25-7.55,2.23-2.23,4.76-3.96,7.46-5.2-5.64-5.25-13.16-8.51-21.43-8.64Z"/>
        <path class="cls-2" d="M52.78,72.93c.16,8.26,3.44,15.76,8.71,21.39,1.27-2.77,3.03-5.33,5.25-7.55,2.23-2.23,4.76-3.96,7.46-5.2-5.64-5.25-13.16-8.51-21.43-8.64Z"/>
        <path class="cls-2" d="M118.33,138.35c-.13,8.56-3.51,16.36-8.96,22.19,7.87-.28,15.66-3.42,21.66-9.41,5.83-5.83,9.15-13.49,9.43-21.68-5.83,5.41-13.59,8.77-22.13,8.9Z"/>
        <path class="cls-2" d="M86.39,152.08c6.07,5.58,13.79,8.41,21.52,8.48,5.46-5.5,8.96-12.95,9.35-21.2-8.68,8.16-19.73,12.4-30.87,12.72Z"/>
        <path class="cls-2" d="M86.39,152.08c6.07,5.58,13.79,8.41,21.52,8.48,5.46-5.5,8.96-12.95,9.35-21.2-8.68,8.16-19.73,12.4-30.87,12.72Z"/>
        <path class="cls-2" d="M86.36,151.05c11.01-.31,21.94-4.55,30.47-12.71-8.33-.24-15.9-3.56-21.62-8.86-.25,7.77-3.2,15.48-8.85,21.56Z"/>
        <path class="cls-2" d="M86.36,151.05c11.01-.31,21.94-4.55,30.47-12.71-8.33-.24-15.9-3.56-21.62-8.86-.25,7.77-3.2,15.48-8.85,21.56Z"/>
        <path class="cls-2" d="M86.36,151.05c11.01-.31,21.94-4.55,30.47-12.71-8.33-.24-15.9-3.56-21.62-8.86-.25,7.77-3.2,15.48-8.85,21.56Z"/>
        <path class="cls-2" d="M119.33,137.29c8.22-.38,15.65-3.86,21.14-9.28-.08-8-3.05-15.54-8.42-21.42-.35,11.08-4.59,22.07-12.72,30.7Z"/>
        <path class="cls-2" d="M119.33,137.29c8.22-.38,15.65-3.86,21.14-9.28-.08-8-3.05-15.54-8.42-21.42-.35,11.08-4.59,22.07-12.72,30.7Z"/>
        <path class="cls-2" d="M131.03,106.22c-5.9,5.56-13.48,8.73-21.56,9.02,5.29,5.72,8.61,13.29,8.85,21.62,8.2-8.58,12.44-19.57,12.71-30.64Z"/>
        <path class="cls-2" d="M131.03,106.22c-5.9,5.56-13.48,8.73-21.56,9.02,5.29,5.72,8.61,13.29,8.85,21.62,8.2-8.58,12.44-19.57,12.71-30.64Z"/>
        <path class="cls-2" d="M131.03,106.22c-5.9,5.56-13.48,8.73-21.56,9.02,5.29,5.72,8.61,13.29,8.85,21.62,8.2-8.58,12.44-19.57,12.71-30.64Z"/>
        <path class="cls-2" d="M103.33,123.35c-2.25,2.25-4.82,4-7.56,5.24,5.65,5.3,13.21,8.59,21.52,8.72-.13-8.31-3.42-15.87-8.72-21.52-1.25,2.74-2.99,5.31-5.24,7.56Z"/>
        <path class="cls-2" d="M103.33,123.35c-2.25,2.25-4.82,4-7.56,5.24,5.65,5.3,13.21,8.59,21.52,8.72-.13-8.31-3.42-15.87-8.72-21.52-1.25,2.74-2.99,5.31-5.24,7.56Z"/>
        <path class="cls-2" d="M103.33,123.35c-2.25,2.25-4.82,4-7.56,5.24,5.65,5.3,13.21,8.59,21.52,8.72-.13-8.31-3.42-15.87-8.72-21.52-1.25,2.74-2.99,5.31-5.24,7.56Z"/>
        <path class="cls-2" d="M103.33,123.35c-2.25,2.25-4.82,4-7.56,5.24,5.65,5.3,13.21,8.59,21.52,8.72-.13-8.31-3.42-15.87-8.72-21.52-1.25,2.74-2.99,5.31-5.24,7.56Z"/>
        <path class="cls-2" d="M109.52,49.75c5.36,5.82,8.68,13.54,8.8,22.02,8.53.13,16.29,3.48,22.12,8.89-.32-8.13-3.64-15.73-9.42-21.51-5.96-5.96-13.68-9.09-21.5-9.41Z"/>
        <path class="cls-2" d="M86.56,58.05c11.08.36,22.06,4.6,30.7,12.72-.38-8.17-3.82-15.56-9.19-21.04-7.71.03-15.42,2.81-21.51,8.33Z"/>
        <path class="cls-2" d="M86.56,58.05c11.08.36,22.06,4.6,30.7,12.72-.38-8.17-3.82-15.56-9.19-21.04-7.71.03-15.42,2.81-21.51,8.33Z"/>
        <path class="cls-2" d="M116.83,71.78c-8.62-8.24-19.67-12.48-30.8-12.71,5.6,5.91,8.8,13.52,9.1,21.64,5.73-5.34,13.33-8.69,21.7-8.93Z"/>
        <path class="cls-2" d="M116.83,71.78c-8.62-8.24-19.67-12.48-30.8-12.71,5.6,5.91,8.8,13.52,9.1,21.64,5.73-5.34,13.33-8.69,21.7-8.93Z"/>
        <path class="cls-2" d="M116.83,71.78c-8.62-8.24-19.67-12.48-30.8-12.71,5.6,5.91,8.8,13.52,9.1,21.64,5.73-5.34,13.33-8.69,21.7-8.93Z"/>
        <path class="cls-2" d="M140.47,82.12c-5.49-5.43-12.92-8.9-21.14-9.28,8.16,8.68,12.4,19.72,12.72,30.86,5.4-5.92,8.38-13.52,8.42-21.58Z"/>
        <path class="cls-2" d="M140.47,82.12c-5.49-5.43-12.92-8.9-21.14-9.28,8.16,8.68,12.4,19.72,12.72,30.86,5.4-5.92,8.38-13.52,8.42-21.58Z"/>
        <path class="cls-2" d="M109.3,95.06c7.85.25,15.62,3.26,21.73,9.01-.24-11.13-4.48-22.19-12.71-30.81-.25,8.41-3.63,16.06-9.01,21.79Z"/>
        <path class="cls-2" d="M109.3,95.06c7.85.25,15.62,3.26,21.73,9.01-.24-11.13-4.48-22.19-12.71-30.81-.25,8.41-3.63,16.06-9.01,21.79Z"/>
        <path class="cls-2" d="M109.3,95.06c7.85.25,15.62,3.26,21.73,9.01-.24-11.13-4.48-22.19-12.71-30.81-.25,8.41-3.63,16.06-9.01,21.79Z"/>
        <path class="cls-2" d="M108.57,94.33c5.3-5.65,8.59-13.21,8.72-21.52-8.31.13-15.87,3.42-21.52,8.72,2.74,1.25,5.31,2.99,7.56,5.24,2.25,2.25,4,4.82,5.24,7.56Z"/>
        <path class="cls-2" d="M108.57,94.33c5.3-5.65,8.59-13.21,8.72-21.52-8.31.13-15.87,3.42-21.52,8.72,2.74,1.25,5.31,2.99,7.56,5.24,2.25,2.25,4,4.82,5.24,7.56Z"/>
        <path class="cls-2" d="M108.57,94.33c5.3-5.65,8.59-13.21,8.72-21.52-8.31.13-15.87,3.42-21.52,8.72,2.74,1.25,5.31,2.99,7.56,5.24,2.25,2.25,4,4.82,5.24,7.56Z"/>
        <path class="cls-2" d="M108.57,94.33c5.3-5.65,8.59-13.21,8.72-21.52-8.31.13-15.87,3.42-21.52,8.72,2.74,1.25,5.31,2.99,7.56,5.24,2.25,2.25,4,4.82,5.24,7.56Z"/>
        <path class="cls-2" d="M75.99,80.83c2.91-1.08,5.98-1.62,9.05-1.62s6.15.54,9.06,1.63c-.27-8.02-3.46-15.53-9.06-21.31-5.76,5.95-8.78,13.59-9.05,21.31Z"/>
        <path class="cls-2" d="M75.99,80.83c2.91-1.08,5.98-1.62,9.05-1.62s6.15.54,9.06,1.63c-.27-8.02-3.46-15.53-9.06-21.31-5.76,5.95-8.78,13.59-9.05,21.31Z"/>
        <path class="cls-2" d="M75.99,80.83c2.91-1.08,5.98-1.62,9.05-1.62s6.15.54,9.06,1.63c-.27-8.02-3.46-15.53-9.06-21.31-5.76,5.95-8.78,13.59-9.05,21.31Z"/>
        <path class="cls-2" d="M75.99,80.83c2.91-1.08,5.98-1.62,9.05-1.62s6.15.54,9.06,1.63c-.27-8.02-3.46-15.53-9.06-21.31-5.76,5.95-8.78,13.59-9.05,21.31Z"/>
        <path class="cls-2" d="M109.23,114.21c8.06-.25,15.62-3.44,21.42-9.07-5.96-5.78-13.62-8.79-21.36-9.05,2.15,5.84,2.13,12.3-.07,18.12Z"/>
        <path class="cls-2" d="M109.23,114.21c8.06-.25,15.62-3.44,21.42-9.07-5.96-5.78-13.62-8.79-21.36-9.05,2.15,5.84,2.13,12.3-.07,18.12Z"/>
        <path class="cls-2" d="M109.23,114.21c8.06-.25,15.62-3.44,21.42-9.07-5.96-5.78-13.62-8.79-21.36-9.05,2.15,5.84,2.13,12.3-.07,18.12Z"/>
        <path class="cls-2" d="M109.23,114.21c8.06-.25,15.62-3.44,21.42-9.07-5.96-5.78-13.62-8.79-21.36-9.05,2.15,5.84,2.13,12.3-.07,18.12Z"/>
        <path class="cls-2" d="M60.79,160.63c-5.47-5.82-8.88-13.6-9.04-22.16-8.48-.13-16.2-3.44-22.02-8.8.31,7.83,3.44,15.57,9.41,21.54,6,5.99,13.78,9.13,21.65,9.41Z"/>
        <path class="cls-2" d="M83.86,152.09c-11.2-.28-22.32-4.52-31.05-12.73.39,8.3,3.92,15.78,9.44,21.29,7.77-.07,15.52-2.93,21.61-8.57Z"/>
        <path class="cls-2" d="M83.86,152.09c-11.2-.28-22.32-4.52-31.05-12.73.39,8.3,3.92,15.78,9.44,21.29,7.77-.07,15.52-2.93,21.61-8.57Z"/>
        <path class="cls-2" d="M74.96,129.52c-5.7,5.32-13.26,8.66-21.59,8.94,8.56,8.12,19.5,12.32,30.52,12.59-5.68-6.07-8.65-13.76-8.93-21.53Z"/>
        <path class="cls-2" d="M74.96,129.52c-5.7,5.32-13.26,8.66-21.59,8.94,8.56,8.12,19.5,12.32,30.52,12.59-5.68-6.07-8.65-13.76-8.93-21.53Z"/>
        <path class="cls-2" d="M74.96,129.52c-5.7,5.32-13.26,8.66-21.59,8.94,8.56,8.12,19.5,12.32,30.52,12.59-5.68-6.07-8.65-13.76-8.93-21.53Z"/>
        <path class="cls-2" d="M38.03,106.76c-5.51,6.08-8.28,13.77-8.32,21.47,5.51,5.39,12.94,8.84,21.16,9.19-8.16-8.61-12.44-19.58-12.83-30.66Z"/>
        <path class="cls-2" d="M38.03,106.76c-5.51,6.08-8.28,13.77-8.32,21.47,5.51,5.39,12.94,8.84,21.16,9.19-8.16-8.61-12.44-19.58-12.83-30.66Z"/>
        <path class="cls-2" d="M39.05,106.22c.27,11.07,4.51,22.06,12.71,30.64.24-8.33,3.56-15.9,8.85-21.62-8.09-.3-15.67-3.47-21.56-9.02Z"/>
        <path class="cls-2" d="M39.05,106.22c.27,11.07,4.51,22.06,12.71,30.64.24-8.33,3.56-15.9,8.85-21.62-8.09-.3-15.67-3.47-21.56-9.02Z"/>
        <path class="cls-2" d="M39.05,106.22c.27,11.07,4.51,22.06,12.71,30.64.24-8.33,3.56-15.9,8.85-21.62-8.09-.3-15.67-3.47-21.56-9.02Z"/>
        <path class="cls-2" d="M66.75,123.35c-2.22-2.22-3.99-4.77-5.25-7.55-5.32,5.68-8.61,13.28-8.71,21.64,8.35-.13,15.95-3.46,21.61-8.81-2.77-1.25-5.37-3.01-7.65-5.29Z"/>
        <path class="cls-2" d="M66.75,123.35c-2.22-2.22-3.99-4.77-5.25-7.55-5.32,5.68-8.61,13.28-8.71,21.64,8.35-.13,15.95-3.46,21.61-8.81-2.77-1.25-5.37-3.01-7.65-5.29Z"/>
        <path class="cls-2" d="M66.75,123.35c-2.22-2.22-3.99-4.77-5.25-7.55-5.32,5.68-8.61,13.28-8.71,21.64,8.35-.13,15.95-3.46,21.61-8.81-2.77-1.25-5.37-3.01-7.65-5.29Z"/>
        <path class="cls-2" d="M66.75,123.35c-2.22-2.22-3.99-4.77-5.25-7.55-5.32,5.68-8.61,13.28-8.71,21.64,8.35-.13,15.95-3.46,21.61-8.81-2.77-1.25-5.37-3.01-7.65-5.29Z"/>
        <path class="cls-2" d="M60.73,96.19c-7.69.29-15.29,3.3-21.22,9.04,5.79,5.57,13.3,8.73,21.32,8.98-1.09-2.88-1.66-5.97-1.66-9.15s.53-6.07,1.56-8.88Z"/>
        <path class="cls-2" d="M60.73,96.19c-7.69.29-15.29,3.3-21.22,9.04,5.79,5.57,13.3,8.73,21.32,8.98-1.09-2.88-1.66-5.97-1.66-9.15s.53-6.07,1.56-8.88Z"/>
        <path class="cls-2" d="M60.73,96.19c-7.69.29-15.29,3.3-21.22,9.04,5.79,5.57,13.3,8.73,21.32,8.98-1.09-2.88-1.66-5.97-1.66-9.15s.53-6.07,1.56-8.88Z"/>
        <path class="cls-2" d="M60.73,96.19c-7.69.29-15.29,3.3-21.22,9.04,5.79,5.57,13.3,8.73,21.32,8.98-1.09-2.88-1.66-5.97-1.66-9.15s.53-6.07,1.56-8.88Z"/>
        <path class="cls-2" d="M85.12,150.85c5.84-6.02,8.85-13.78,9.06-21.59-5.85,2.2-12.34,2.21-18.2.03.23,7.81,3.28,15.56,9.14,21.56Z"/>
        <path class="cls-2" d="M85.12,150.85c5.84-6.02,8.85-13.78,9.06-21.59-5.85,2.2-12.34,2.21-18.2.03.23,7.81,3.28,15.56,9.14,21.56Z"/>
        <path class="cls-2" d="M85.12,150.85c5.84-6.02,8.85-13.78,9.06-21.59-5.85,2.2-12.34,2.21-18.2.03.23,7.81,3.28,15.56,9.14,21.56Z"/>
        <path class="cls-2" d="M85.12,150.85c5.84-6.02,8.85-13.78,9.06-21.59-5.85,2.2-12.34,2.21-18.2.03.23,7.81,3.28,15.56,9.14,21.56Z"/>
        <path class="cls-2" d="M67.48,87.5c-2.26,2.26-3.99,4.86-5.2,7.62,0,0,0,0,0,0,6.54.06,13.06,2.04,18.64,5.92-3.92-5.59-5.91-12.13-5.99-18.69-2.74,1.22-5.27,2.95-7.46,5.14Z"/>
        <path class="cls-2" d="M67.48,87.5c-2.26,2.26-3.99,4.86-5.2,7.62,0,0,0,0,0,0,6.54.06,13.06,2.04,18.64,5.92-3.92-5.59-5.91-12.13-5.99-18.69-2.74,1.22-5.27,2.95-7.46,5.14Z"/>
        <path class="cls-2" d="M67.48,87.5c-2.26,2.26-3.99,4.86-5.2,7.62,0,0,0,0,0,0,6.54.06,13.06,2.04,18.64,5.92-3.92-5.59-5.91-12.13-5.99-18.69-2.74,1.22-5.27,2.95-7.46,5.14Z"/>
        <path class="cls-2" d="M67.48,87.5c-2.26,2.26-3.99,4.86-5.2,7.62,0,0,0,0,0,0,6.54.06,13.06,2.04,18.64,5.92-3.92-5.59-5.91-12.13-5.99-18.69-2.74,1.22-5.27,2.95-7.46,5.14Z"/>
        <path class="cls-2" d="M67.48,87.5c-2.26,2.26-3.99,4.86-5.2,7.62,0,0,0,0,0,0,6.54.06,13.06,2.04,18.64,5.92-3.92-5.59-5.91-12.13-5.99-18.69-2.74,1.22-5.27,2.95-7.46,5.14Z"/>
        <path class="cls-2" d="M102.6,122.62c2.16-2.16,3.88-4.66,5.1-7.36-6.69-.1-13.06-2.17-18.45-5.92,3.85,5.51,5.84,11.93,5.98,18.38,2.71-1.22,5.21-2.94,7.37-5.1Z"/>
        <path class="cls-2" d="M102.6,122.62c2.16-2.16,3.88-4.66,5.1-7.36-6.69-.1-13.06-2.17-18.45-5.92,3.85,5.51,5.84,11.93,5.98,18.38,2.71-1.22,5.21-2.94,7.37-5.1Z"/>
        <path class="cls-2" d="M102.6,122.62c2.16-2.16,3.88-4.66,5.1-7.36-6.69-.1-13.06-2.17-18.45-5.92,3.85,5.51,5.84,11.93,5.98,18.38,2.71-1.22,5.21-2.94,7.37-5.1Z"/>
        <path class="cls-2" d="M102.6,122.62c2.16-2.16,3.88-4.66,5.1-7.36-6.69-.1-13.06-2.17-18.45-5.92,3.85,5.51,5.84,11.93,5.98,18.38,2.71-1.22,5.21-2.94,7.37-5.1Z"/>
        <path class="cls-2" d="M102.6,122.62c2.16-2.16,3.88-4.66,5.1-7.36-6.69-.1-13.06-2.17-18.45-5.92,3.85,5.51,5.84,11.93,5.98,18.38,2.71-1.22,5.21-2.94,7.37-5.1Z"/>
        <path class="cls-2" d="M107.77,95.04c-1.22-2.78-2.97-5.33-5.18-7.54-2.18-2.18-4.7-3.91-7.44-5.13-.08,6.75-2.16,13.18-5.96,18.62,5.57-3.88,12.06-5.86,18.58-5.94Z"/>
        <path class="cls-2" d="M107.77,95.04c-1.22-2.78-2.97-5.33-5.18-7.54-2.18-2.18-4.7-3.91-7.44-5.13-.08,6.75-2.16,13.18-5.96,18.62,5.57-3.88,12.06-5.86,18.58-5.94Z"/>
        <path class="cls-2" d="M107.77,95.04c-1.22-2.78-2.97-5.33-5.18-7.54-2.18-2.18-4.7-3.91-7.44-5.13-.08,6.75-2.16,13.18-5.96,18.62,5.57-3.88,12.06-5.86,18.58-5.94Z"/>
        <path class="cls-2" d="M107.77,95.04c-1.22-2.78-2.97-5.33-5.18-7.54-2.18-2.18-4.7-3.91-7.44-5.13-.08,6.75-2.16,13.18-5.96,18.62,5.57-3.88,12.06-5.86,18.58-5.94Z"/>
        <path class="cls-2" d="M107.77,95.04c-1.22-2.78-2.97-5.33-5.18-7.54-2.18-2.18-4.7-3.91-7.44-5.13-.08,6.75-2.16,13.18-5.96,18.62,5.57-3.88,12.06-5.86,18.58-5.94Z"/>
        <path class="cls-2" d="M93.95,81.87c-2.81-1.08-5.81-1.64-8.91-1.64s-6.17.57-9,1.67c4.57,4.67,7.78,10.67,8.99,17.36,1.18-6.7,4.37-12.71,8.92-17.39Z"/>
        <path class="cls-2" d="M93.95,81.87c-2.81-1.08-5.81-1.64-8.91-1.64s-6.17.57-9,1.67c4.57,4.67,7.78,10.67,8.99,17.36,1.18-6.7,4.37-12.71,8.92-17.39Z"/>
        <path class="cls-2" d="M93.95,81.87c-2.81-1.08-5.81-1.64-8.91-1.64s-6.17.57-9,1.67c4.57,4.67,7.78,10.67,8.99,17.36,1.18-6.7,4.37-12.71,8.92-17.39Z"/>
        <path class="cls-2" d="M93.95,81.87c-2.81-1.08-5.81-1.64-8.91-1.64s-6.17.57-9,1.67c4.57,4.67,7.78,10.67,8.99,17.36,1.18-6.7,4.37-12.71,8.92-17.39Z"/>
        <path class="cls-2" d="M93.95,81.87c-2.81-1.08-5.81-1.64-8.91-1.64s-6.17.57-9,1.67c4.57,4.67,7.78,10.67,8.99,17.36,1.18-6.7,4.37-12.71,8.92-17.39Z"/>
        <path class="cls-2" d="M94.1,83.22c-5.04,5.47-8.22,12.68-8.52,20.62,5.24-5.67,8.23-12.91,8.52-20.62Z"/>
        <path class="cls-2" d="M94.1,83.22c-5.04,5.47-8.22,12.68-8.52,20.62,5.24-5.67,8.23-12.91,8.52-20.62Z"/>
        <path class="cls-2" d="M94.1,83.22c-5.04,5.47-8.22,12.68-8.52,20.62,5.24-5.67,8.23-12.91,8.52-20.62Z"/>
        <path class="cls-2" d="M94.1,83.22c-5.04,5.47-8.22,12.68-8.52,20.62,5.24-5.67,8.23-12.91,8.52-20.62Z"/>
        <path class="cls-2" d="M94.1,83.22c-5.04,5.47-8.22,12.68-8.52,20.62,5.24-5.67,8.23-12.91,8.52-20.62Z"/>
        <path class="cls-2" d="M94.1,83.22c-5.04,5.47-8.22,12.68-8.52,20.62,5.24-5.67,8.23-12.91,8.52-20.62Z"/>
        <path class="cls-2" d="M84.49,103.83c-.33-7.87-3.49-15.03-8.49-20.46.32,7.38,3.15,14.67,8.49,20.46Z"/>
        <path class="cls-2" d="M84.49,103.83c-.33-7.87-3.49-15.03-8.49-20.46.32,7.38,3.15,14.67,8.49,20.46Z"/>
        <path class="cls-2" d="M84.49,103.83c-.33-7.87-3.49-15.03-8.49-20.46.32,7.38,3.15,14.67,8.49,20.46Z"/>
        <path class="cls-2" d="M84.49,103.83c-.33-7.87-3.49-15.03-8.49-20.46.32,7.38,3.15,14.67,8.49,20.46Z"/>
        <path class="cls-2" d="M84.49,103.83c-.33-7.87-3.49-15.03-8.49-20.46.32,7.38,3.15,14.67,8.49,20.46Z"/>
        <path class="cls-2" d="M84.49,103.83c-.33-7.87-3.49-15.03-8.49-20.46.32,7.38,3.15,14.67,8.49,20.46Z"/>
        <path class="cls-2" d="M108.23,96.15c-4.67,4.54-10.66,7.72-17.33,8.91,6.67,1.19,12.66,4.37,17.33,8.91,1.08-2.81,1.64-5.81,1.64-8.91s-.56-6.1-1.64-8.91Z"/>
        <path class="cls-2" d="M108.23,96.15c-4.67,4.54-10.66,7.72-17.33,8.91,6.67,1.19,12.66,4.37,17.33,8.91,1.08-2.81,1.64-5.81,1.64-8.91s-.56-6.1-1.64-8.91Z"/>
        <path class="cls-2" d="M108.23,96.15c-4.67,4.54-10.66,7.72-17.33,8.91,6.67,1.19,12.66,4.37,17.33,8.91,1.08-2.81,1.64-5.81,1.64-8.91s-.56-6.1-1.64-8.91Z"/>
        <path class="cls-2" d="M108.23,96.15c-4.67,4.54-10.66,7.72-17.33,8.91,6.67,1.19,12.66,4.37,17.33,8.91,1.08-2.81,1.64-5.81,1.64-8.91s-.56-6.1-1.64-8.91Z"/>
        <path class="cls-2" d="M108.23,96.15c-4.67,4.54-10.66,7.72-17.33,8.91,6.67,1.19,12.66,4.37,17.33,8.91,1.08-2.81,1.64-5.81,1.64-8.91s-.56-6.1-1.64-8.91Z"/>
        <path class="cls-2" d="M106.77,96.11c-7.33.33-14.56,3.13-20.33,8.41,7.81-.34,14.91-3.46,20.33-8.41Z"/>
        <path class="cls-2" d="M106.77,96.11c-7.33.33-14.56,3.13-20.33,8.41,7.81-.34,14.91-3.46,20.33-8.41Z"/>
        <path class="cls-2" d="M106.77,96.11c-7.33.33-14.56,3.13-20.33,8.41,7.81-.34,14.91-3.46,20.33-8.41Z"/>
        <path class="cls-2" d="M106.77,96.11c-7.33.33-14.56,3.13-20.33,8.41,7.81-.34,14.91-3.46,20.33-8.41Z"/>
        <path class="cls-2" d="M106.77,96.11c-7.33.33-14.56,3.13-20.33,8.41,7.81-.34,14.91-3.46,20.33-8.41Z"/>
        <path class="cls-2" d="M106.77,96.11c-7.33.33-14.56,3.13-20.33,8.41,7.81-.34,14.91-3.46,20.33-8.41Z"/>
        <path class="cls-2" d="M106.97,114.2c-5.48-5.09-12.73-8.3-20.71-8.6,5.68,5.29,12.96,8.31,20.71,8.6Z"/>
        <path class="cls-2" d="M106.97,114.2c-5.48-5.09-12.73-8.3-20.71-8.6,5.68,5.29,12.96,8.31,20.71,8.6Z"/>
        <path class="cls-2" d="M106.97,114.2c-5.48-5.09-12.73-8.3-20.71-8.6,5.68,5.29,12.96,8.31,20.71,8.6Z"/>
        <path class="cls-2" d="M106.97,114.2c-5.48-5.09-12.73-8.3-20.71-8.6,5.68,5.29,12.96,8.31,20.71,8.6Z"/>
        <path class="cls-2" d="M106.97,114.2c-5.48-5.09-12.73-8.3-20.71-8.6,5.68,5.29,12.96,8.31,20.71,8.6Z"/>
        <path class="cls-2" d="M106.97,114.2c-5.48-5.09-12.73-8.3-20.71-8.6,5.68,5.29,12.96,8.31,20.71,8.6Z"/>
        <path class="cls-2" d="M62.39,115.26c1.2,2.67,2.89,5.17,5.08,7.36,2.19,2.19,4.71,3.92,7.46,5.14.11-6.48,2.09-12.93,5.94-18.46-5.4,3.77-11.78,5.85-18.49,5.95Z"/>
        <path class="cls-2" d="M62.39,115.26c1.2,2.67,2.89,5.17,5.08,7.36,2.19,2.19,4.71,3.92,7.46,5.14.11-6.48,2.09-12.93,5.94-18.46-5.4,3.77-11.78,5.85-18.49,5.95Z"/>
        <path class="cls-2" d="M62.39,115.26c1.2,2.67,2.89,5.17,5.08,7.36,2.19,2.19,4.71,3.92,7.46,5.14.11-6.48,2.09-12.93,5.94-18.46-5.4,3.77-11.78,5.85-18.49,5.95Z"/>
        <path class="cls-2" d="M62.39,115.26c1.2,2.67,2.89,5.17,5.08,7.36,2.19,2.19,4.71,3.92,7.46,5.14.11-6.48,2.09-12.93,5.94-18.46-5.4,3.77-11.78,5.85-18.49,5.95Z"/>
        <path class="cls-2" d="M62.39,115.26c1.2,2.67,2.89,5.17,5.08,7.36,2.19,2.19,4.71,3.92,7.46,5.14.11-6.48,2.09-12.93,5.94-18.46-5.4,3.77-11.78,5.85-18.49,5.95Z"/>
        <path class="cls-2" d="M61.86,113.96c4.67-4.53,10.65-7.71,17.32-8.9-6.66-1.19-12.65-4.37-17.31-8.9h0c-2.18,5.72-2.18,12.08,0,17.8Z"/>
        <path class="cls-2" d="M61.86,113.96c4.67-4.53,10.65-7.71,17.32-8.9-6.66-1.19-12.65-4.37-17.31-8.9h0c-2.18,5.72-2.18,12.08,0,17.8Z"/>
        <path class="cls-2" d="M61.86,113.96c4.67-4.53,10.65-7.71,17.32-8.9-6.66-1.19-12.65-4.37-17.31-8.9h0c-2.18,5.72-2.18,12.08,0,17.8Z"/>
        <path class="cls-2" d="M61.86,113.96c4.67-4.53,10.65-7.71,17.32-8.9-6.66-1.19-12.65-4.37-17.31-8.9h0c-2.18,5.72-2.18,12.08,0,17.8Z"/>
        <path class="cls-2" d="M61.86,113.96c4.67-4.53,10.65-7.71,17.32-8.9-6.66-1.19-12.65-4.37-17.31-8.9h0c-2.18,5.72-2.18,12.08,0,17.8Z"/>
        <path class="cls-2" d="M63.4,96.2c5.4,4.89,12.46,7.98,20.22,8.32-5.75-5.22-12.94-7.99-20.22-8.32Z"/>
        <path class="cls-2" d="M63.4,96.2c5.4,4.89,12.46,7.98,20.22,8.32-5.75-5.22-12.94-7.99-20.22-8.32Z"/>
        <path class="cls-2" d="M63.4,96.2c5.4,4.89,12.46,7.98,20.22,8.32-5.75-5.22-12.94-7.99-20.22-8.32Z"/>
        <path class="cls-2" d="M63.4,96.2c5.4,4.89,12.46,7.98,20.22,8.32-5.75-5.22-12.94-7.99-20.22-8.32Z"/>
        <path class="cls-2" d="M63.4,96.2c5.4,4.89,12.46,7.98,20.22,8.32-5.75-5.22-12.94-7.99-20.22-8.32Z"/>
        <path class="cls-2" d="M63.4,96.2c5.4,4.89,12.46,7.98,20.22,8.32-5.75-5.22-12.94-7.99-20.22-8.32Z"/>
        <path class="cls-2" d="M63.1,114.2c7.76-.29,15.03-3.31,20.71-8.6-7.98.3-15.23,3.51-20.71,8.6Z"/>
        <path class="cls-2" d="M63.1,114.2c7.76-.29,15.03-3.31,20.71-8.6-7.98.3-15.23,3.51-20.71,8.6Z"/>
        <path class="cls-2" d="M63.1,114.2c7.76-.29,15.03-3.31,20.71-8.6-7.98.3-15.23,3.51-20.71,8.6Z"/>
        <path class="cls-2" d="M63.1,114.2c7.76-.29,15.03-3.31,20.71-8.6-7.98.3-15.23,3.51-20.71,8.6Z"/>
        <path class="cls-2" d="M63.1,114.2c7.76-.29,15.03-3.31,20.71-8.6-7.98.3-15.23,3.51-20.71,8.6Z"/>
        <path class="cls-2" d="M63.1,114.2c7.76-.29,15.03-3.31,20.71-8.6-7.98.3-15.23,3.51-20.71,8.6Z"/>
        <path class="cls-2" d="M93.95,128.25c-4.52-4.65-7.7-10.62-8.9-17.26-1.17,6.65-4.33,12.63-8.83,17.3,2.78,1.05,5.76,1.61,8.82,1.61s6.1-.56,8.91-1.64Z"/>
        <path class="cls-2" d="M93.95,128.25c-4.52-4.65-7.7-10.62-8.9-17.26-1.17,6.65-4.33,12.63-8.83,17.3,2.78,1.05,5.76,1.61,8.82,1.61s6.1-.56,8.91-1.64Z"/>
        <path class="cls-2" d="M93.95,128.25c-4.52-4.65-7.7-10.62-8.9-17.26-1.17,6.65-4.33,12.63-8.83,17.3,2.78,1.05,5.76,1.61,8.82,1.61s6.1-.56,8.91-1.64Z"/>
        <path class="cls-2" d="M93.95,128.25c-4.52-4.65-7.7-10.62-8.9-17.26-1.17,6.65-4.33,12.63-8.83,17.3,2.78,1.05,5.76,1.61,8.82,1.61s6.1-.56,8.91-1.64Z"/>
        <path class="cls-2" d="M93.95,128.25c-4.52-4.65-7.7-10.62-8.9-17.26-1.17,6.65-4.33,12.63-8.83,17.3,2.78,1.05,5.76,1.61,8.82,1.61s6.1-.56,8.91-1.64Z"/>
        <path class="cls-2" d="M94.16,126.98c-.33-7.41-3.19-14.73-8.58-20.53.34,7.91,3.53,15.09,8.58,20.53Z"/>
        <path class="cls-2" d="M94.16,126.98c-.33-7.41-3.19-14.73-8.58-20.53.34,7.91,3.53,15.09,8.58,20.53Z"/>
        <path class="cls-2" d="M94.16,126.98c-.33-7.41-3.19-14.73-8.58-20.53.34,7.91,3.53,15.09,8.58,20.53Z"/>
        <path class="cls-2" d="M94.16,126.98c-.33-7.41-3.19-14.73-8.58-20.53.34,7.91,3.53,15.09,8.58,20.53Z"/>
        <path class="cls-2" d="M94.16,126.98c-.33-7.41-3.19-14.73-8.58-20.53.34,7.91,3.53,15.09,8.58,20.53Z"/>
        <path class="cls-2" d="M94.16,126.98c-.33-7.41-3.19-14.73-8.58-20.53.34,7.91,3.53,15.09,8.58,20.53Z"/>
        <path class="cls-2" d="M76,127.01c5.02-5.46,8.19-12.65,8.5-20.56-5.37,5.82-8.2,13.15-8.5,20.56Z"/>
        <path class="cls-2" d="M76,127.01c5.02-5.46,8.19-12.65,8.5-20.56-5.37,5.82-8.2,13.15-8.5,20.56Z"/>
        <path class="cls-2" d="M76,127.01c5.02-5.46,8.19-12.65,8.5-20.56-5.37,5.82-8.2,13.15-8.5,20.56Z"/>
        <path class="cls-2" d="M76,127.01c5.02-5.46,8.19-12.65,8.5-20.56-5.37,5.82-8.2,13.15-8.5,20.56Z"/>
        <path class="cls-2" d="M76,127.01c5.02-5.46,8.19-12.65,8.5-20.56-5.37,5.82-8.2,13.15-8.5,20.56Z"/>
        <path class="cls-2" d="M76,127.01c5.02-5.46,8.19-12.65,8.5-20.56-5.37,5.82-8.2,13.15-8.5,20.56Z"/>
      </g>
    </g>
  </g>
</svg>